<svg width="35" height="35" viewBox="0 0 35 35" xmlns="http://www.w3.org/2000/svg">
    <g fill="none" fill-rule="evenodd">
        <path fill="#006438" d="M0 0h35v35H0z"/>
        <path d="M17.493 9.743 7.99 18.93a.362.362 0 0 0 .007.536l2.479 2.297a.43.43 0 0 0 .297.112.429.429 0 0 0 .295-.12l6.724-6.596 6.724 6.596a.429.429 0 0 0 .294.12.43.43 0 0 0 .298-.112l2.48-2.297a.368.368 0 0 0 .12-.27.368.368 0 0 0-.114-.266L18.09 9.743a.431.431 0 0 0-.3-.118.43.43 0 0 0-.298.118z" fill="#FFF" fill-rule="nonzero"/>
    </g>
</svg>
