<svg width="30" height="25" viewBox="0 0 30 25" xmlns="http://www.w3.org/2000/svg">
    <path d="M30 2.866a12.89 12.89 0 0 1-3.544.965A6.082 6.082 0 0 0 29.162.454a12.342 12.342 0 0 1-3.9 1.48A6.183 6.183 0 0 0 20.769 0c-3.405 0-6.146 2.745-6.146 6.11 0 .485.041.95.143 1.393a17.448 17.448 0 0 1-12.677-6.39 6.119 6.119 0 0 0-.842 3.088 6.107 6.107 0 0 0 2.732 5.077A6.105 6.105 0 0 1 1.2 8.526v.067c0 2.968 2.132 5.434 4.928 6.002-.501.136-1.047.201-1.613.201-.394 0-.791-.022-1.164-.104a6.204 6.204 0 0 0 5.747 4.256 12.411 12.411 0 0 1-7.626 2.605c-.504 0-.988-.022-1.472-.084 2.724 1.745 5.953 2.742 9.435 2.742 11.318 0 17.505-9.312 17.505-17.384 0-.27-.01-.53-.023-.79A12.224 12.224 0 0 0 30 2.868z" fill="#FFF" fill-rule="nonzero"/>
</svg>
