<svg width="15" height="14" viewBox="0 0 15 14" xmlns="http://www.w3.org/2000/svg" xmlns:xlink="http://www.w3.org/1999/xlink">
    <defs>
        <path d="M14.167 12.25c.46 0 .833.392.833.875 0 .449-.322.819-.736.87l-.097.005h-10c-.46 0-.834-.392-.834-.875 0-.449.322-.819.736-.87l.098-.005h10zm-13.334 0c.46 0 .834.392.834.875S1.294 14 .833 14C.373 14 0 13.608 0 13.125s.373-.875.833-.875zm13.334-6.125c.46 0 .833.392.833.875 0 .449-.322.819-.736.87l-.097.005h-10c-.46 0-.834-.392-.834-.875 0-.449.322-.819.736-.87l.098-.005h10zm-13.334 0c.46 0 .834.392.834.875s-.373.875-.834.875C.373 7.875 0 7.483 0 7s.373-.875.833-.875zM14.167 0c.46 0 .833.392.833.875 0 .449-.322.819-.736.87l-.097.005h-10c-.46 0-.834-.392-.834-.875 0-.449.322-.819.736-.87L4.167 0h10zM.833 0c.46 0 .834.392.834.875s-.373.875-.834.875C.373 1.75 0 1.358 0 .875S.373 0 .833 0z" id="9y8pum6u0a"/>
    </defs>
    <g fill="none" fill-rule="evenodd">
        <mask id="ou91ahao1b" fill="#fff">
            <use xlink:href="#9y8pum6u0a"/>
        </mask>
        <use fill="#333" xlink:href="#9y8pum6u0a"/>
        <path fill="#212121" mask="url(#ou91ahao1b)" d="M-4.167-5.25h23.333v24.5H-4.167z"/>
    </g>
</svg>
