<?xml version="1.0" encoding="UTF-8"?>
<svg width="14px" height="14px" viewBox="0 0 14 14" version="1.1" xmlns="http://www.w3.org/2000/svg" xmlns:xlink="http://www.w3.org/1999/xlink">
    <title>C79C3875-6801-412B-8CFE-A6FE32130BD7</title>
    <g id="ニュースリリース" stroke="none" stroke-width="1" fill="none" fill-rule="evenodd">
        <g id="contents-index-pc__1440px" transform="translate(-694.000000, -381.000000)" fill="#FFFFFF" fill-rule="nonzero">
            <g id="btn-/-primary-/-round-/-icon-/-default" transform="translate(602.000000, 370.000000)">
                <g id="Group" transform="translate(92.000000, 7.000000)">
                    <g id="search_white" transform="translate(0.000000, 4.000000)">
                        <path d="M5.63456768,11.2649366 C6.88591032,11.2649669 8.10145785,10.8474051 9.08867501,10.0783609 L12.8131265,13.8033772 C13.0913577,14.072124 13.5347014,14.0644178 13.8034075,13.7861444 C14.0655308,13.5146974 14.0655308,13.0843627 13.8034075,12.8129461 L10.078956,9.08792972 C11.9869873,6.63140556 11.5426729,3.09300713 9.08652124,1.1846864 C6.6303696,-0.723634342 3.09253809,-0.279252494 1.18450674,2.17727167 C-0.723524606,4.63379583 -0.279210147,8.17219426 2.1769415,10.080515 C3.1657664,10.8488008 4.38240599,11.2655737 5.63456768,11.2649366 Z M2.64200499,2.6402516 C4.29476862,0.987206949 6.9744274,0.98717661 8.62722137,2.64019092 C10.2800153,4.29320523 10.2800457,6.97327042 8.62728204,8.62631507 C6.9745184,10.2793597 4.29485963,10.2793901 2.64206566,8.62637575 C2.64203532,8.62634541 2.64203532,8.62634541 2.64200499,8.62631507 C0.989241352,6.98534552 0.979503867,4.31504963 2.62022457,2.66203532 C2.6274746,2.65475385 2.63472463,2.64750272 2.64200499,2.6402516 Z" id="Shape"></path>
                    </g>
                </g>
            </g>
        </g>
    </g>
</svg>