<svg width="22" height="19" viewBox="0 0 22 19" xmlns="http://www.w3.org/2000/svg">
    <g fill="#FFF" fill-rule="nonzero">
        <path d="M16.066 11.227h-3.092c-.846 0-1.534.656-1.534 1.462v2.259c0 .806.688 1.461 1.534 1.461h3.092c.846 0 1.534-.655 1.534-1.461v-2.26c0-.805-.688-1.46-1.534-1.46zm.418 3.72a.41.41 0 0 1-.418.4h-3.092a.41.41 0 0 1-.418-.4V12.69a.41.41 0 0 1 .418-.399h3.092a.41.41 0 0 1 .418.399v2.259z"/>
        <path d="M22 6.225a.491.491 0 0 0-.072-.262L18.655.27A.543.543 0 0 0 18.188 0H3.808a.534.534 0 0 0-.468.271L.072 5.963A.535.535 0 0 0 0 6.225 3.12 3.12 0 0 0 1.888 9.08v9.386c0 .294.243.534.54.534h17.14c.297 0 .54-.24.54-.534v-9.32c0-.022 0-.04-.005-.057A3.13 3.13 0 0 0 22 6.225zM4.122 1.072h13.751l2.558 4.45H1.57l2.553-4.45zm11.535 5.513c-.17.96-1.02 1.69-2.04 1.69-1.021 0-1.87-.73-2.042-1.69h4.082zm-5.228 0c-.17.96-1.02 1.69-2.04 1.69-1.021 0-1.87-.73-2.046-1.69h4.086zm-9.314 0H5.2a2.07 2.07 0 0 1-2.045 1.69 2.062 2.062 0 0 1-2.041-1.69zm7.948 11.348H5.96v-5.758c0-.418.341-.76.768-.76H8.3c.422 0 .768.337.768.76v5.758h-.004zm9.966 0H10.14v-5.758a1.84 1.84 0 0 0-1.847-1.828H6.725a1.84 1.84 0 0 0-1.848 1.828v5.762h-1.91V9.342c.063.005.126.005.189.005 1.088 0 2.05-.547 2.616-1.379a3.161 3.161 0 0 0 2.616 1.379 3.167 3.167 0 0 0 2.616-1.379 3.159 3.159 0 0 0 2.612 1.379 3.153 3.153 0 0 0 2.612-1.379 3.161 3.161 0 0 0 2.616 1.379c.063 0 .122-.005.185-.005v8.59zm-.185-9.654c-1.02 0-1.87-.729-2.04-1.69h4.086a2.079 2.079 0 0 1-2.046 1.69z"/>
    </g>
</svg>
