<svg width="30" height="30" viewBox="0 0 30 30" xmlns="http://www.w3.org/2000/svg">
    <g fill="#FFF" fill-rule="nonzero">
        <path d="M22.5 0h-15C3.3 0 0 3.3 0 7.5v15C0 26.7 3.3 30 7.5 30h15c4.2 0 7.5-3.3 7.5-7.5v-15C30 3.3 26.7 0 22.5 0zM27 22.5c0 2.55-1.95 4.5-4.5 4.5h-15C4.95 27 3 25.05 3 22.5v-15C3 4.95 4.95 3 7.5 3h15C25.05 3 27 4.95 27 7.5v15z"/>
        <path d="M14.737 7.368c-4.126 0-7.369 3.243-7.369 7.369 0 4.126 3.243 7.368 7.369 7.368 4.126 0 7.368-3.242 7.368-7.368s-3.242-7.369-7.368-7.369zm0 11.79c-2.505 0-4.421-1.916-4.421-4.421 0-2.505 1.916-4.421 4.42-4.421 2.506 0 4.422 1.916 4.422 4.42 0 2.506-1.916 4.422-4.421 4.422z"/>
        <circle cx="22.632" cy="7.368" r="1.579"/>
    </g>
</svg>
