<svg width="22" height="20" viewBox="0 0 22 20" xmlns="http://www.w3.org/2000/svg">
    <path d="M17.289 15.31H8.552l-.507-2.006H19.5L22 3.423H5.545L4.679 0H0v1.418h3.558l3.532 13.96a2.355 2.355 0 0 0-1.802 2.277C5.288 18.948 6.353 20 7.662 20c1.309 0 2.374-1.052 2.374-2.345 0-.33-.07-.643-.194-.928h5.267a2.308 2.308 0 0 0-.194.928c0 1.293 1.065 2.345 2.374 2.345 1.308 0 2.373-1.052 2.373-2.345 0-1.293-1.065-2.346-2.373-2.346zm-4.956-3.424H10.74l-.356-2.813h1.95v2.813zM17.7 4.841h2.463l-.712 2.814h-2.107L17.7 4.84zm-.535 4.232h1.927l-.712 2.814h-1.571l.356-2.814zM13.768 4.84h2.485l-.356 2.814h-2.129V4.84zm0 4.232h1.95l-.356 2.813h-1.594V9.073zM12.333 4.84v2.814h-2.128L9.849 4.84h2.484zm-6.43 0h2.5l.355 2.814H6.615L5.903 4.84zm1.071 4.232h1.964l.356 2.813H7.686l-.712-2.813zm.688 9.509a.934.934 0 0 1-.939-.927c0-.512.421-.928.939-.928.517 0 .938.416.938.928a.934.934 0 0 1-.938.927zm9.627 0a.934.934 0 0 1-.939-.927c0-.512.421-.928.939-.928.517 0 .938.416.938.928a.934.934 0 0 1-.938.927z" fill="#FFF" fill-rule="nonzero"/>
</svg>
