<svg width="111" height="36" viewBox="0 0 111 36" xmlns="http://www.w3.org/2000/svg">
    <g fill="#006634" fill-rule="evenodd">
        <path d="M27.077 15.987c-.464 0-.929.2-1.357.602-1.25 1.246-2.465 2.33-4.143 2.33-3.179 0-5.072-2.651-5.072-7.03 0-3.655 1.322-7.591 5-7.591 1.715 0 2.643.723 3.465 1.808.428.562 1 .843 1.571.843 1.107 0 2-1.044 2-2.33C28.47 2.13 24.613 0 21.47 0c-6.143 0-10.393 4.86-10.393 11.89 0 8.596 5.143 11.648 9.964 11.648 2.964 0 5.464-1.205 7.429-3.574a2.606 2.606 0 0 0 .607-1.688c0-1.205-.929-2.29-2-2.29M46.054 16.886c.337.891 1.275 3.448 1.275 3.448.45 1.123 1.387 1.82 2.512 1.82 1.35 0 2.774-1.046 2.774-2.75 0-.349-.075-.736-.225-1.2L45.941 1.936C45.491.775 44.367 0 43.054 0c-1.275 0-2.4.736-2.887 1.937l-6.711 17.04-.225 1.008c0 1.2.975 2.169 2.174 2.169.9 0 1.725-.581 2.1-1.55 0 0 .975-2.517 1.425-3.718l1.65-4.221c.487-1.317 1.274-3.408 1.987-5.306.6 1.665 1.425 3.912 1.95 5.306l1.537 4.221zM59.52 0c-1.356 0-2.75.967-2.75 2.784V19.37c0 1.817 1.394 2.784 2.788 2.784 1.317 0 2.75-.967 2.75-2.784V2.784C62.308.967 60.913 0 59.519 0M84.962 0c-1.286 0-2.231 1.007-2.231 2.324v5.81s.038 2.982.075 5.5c-1.36-2.44-3.554-6.004-7.298-11.969C74.79.542 73.806 0 72.37 0c-1.74 0-3.138 1.317-3.138 2.944v16.809c0 1.549 1.172 2.4 2.23 2.4 1.098 0 2.232-.851 2.232-2.4v-6.585s-.076-4.221-.076-4.84c1.891 3.485 4.954 8.442 7.299 12.238.68 1.007 1.701 1.51 3.063 1.51 1.815 0 3.252-1.51 3.252-3.447V2.324C87.193 1.007 86.248 0 84.96 0M107.307 17.747s-7.192.039-9.307.039c1.461-1.81 9.999-12.198 9.999-12.198.615-.748.961-1.614.961-2.519 0-1.77-1.269-3.069-3.038-3.069H94.654c-1.462 0-2.231 1.141-2.231 2.204 0 1.023.77 2.164 2.192 2.164 0 0 5.038-.04 7.5-.04-2.423 3.03-9.769 12.238-9.769 12.238-.615.787-.961 1.692-.961 2.558 0 1.77 1.23 3.03 2.884 3.03h12.96c1.231 0 2.154-.945 2.154-2.204.039-1.259-.884-2.203-2.076-2.203M.98 33.694 0 35.23c51.994-4.784 93.174-.726 108.96.769l1.81-5.254C79.61 28.184 42.536 28.141.98 33.694"/>
    </g>
</svg>
